<svg width="100%" height="100%" style="overflow:visible;" preserveAspectRatio="none" viewBox="0 0 146.76 150.15" fill="none" xmlns="http://www.w3.org/2000/svg"><path d="M75.4273 150.879C57.5615 150.871 40.2817 144.52 26.6801 132.962C13.0784 121.405 4.04278 105.396 1.19008 87.7996C-1.66262 70.2034 1.85381 52.1685 11.1101 36.9225C20.3664 21.6764 34.7584 10.2142 51.7106 4.58715C61.0821 1.46915 70.9776 0.223709 80.8317 0.921984C90.6858 1.62026 100.305 4.24856 109.141 8.65677C117.977 13.065 125.856 19.1667 132.328 26.6135C138.8 34.0603 143.738 42.7061 146.86 52.0573C146.954 52.3317 146.994 52.6221 146.975 52.9117C146.957 53.2013 146.881 53.4844 146.752 53.7446C146.623 54.0048 146.444 54.237 146.225 54.4277C146.006 54.6185 145.751 54.7639 145.475 54.8558C145.199 54.9476 144.908 54.984 144.618 54.9629C144.327 54.9417 144.044 54.8634 143.785 54.7325C143.525 54.6015 143.294 54.4206 143.105 54.2001C142.916 53.9796 142.773 53.7238 142.683 53.4477C136.647 35.7938 123.858 21.2378 107.107 12.9546C90.3559 4.6714 71.0014 3.33313 53.2651 9.2317C35.5289 15.1303 20.8501 27.7871 12.4304 44.4414C4.01083 61.0956 2.53362 80.3961 8.32101 98.1328C20.6667 135.094 60.8587 155.131 97.8959 142.818C98.1704 142.727 98.4602 142.69 98.7489 142.711C99.0375 142.731 99.3193 142.808 99.5781 142.937C99.8369 143.066 100.068 143.245 100.257 143.463C100.447 143.681 100.592 143.934 100.683 144.208C100.775 144.482 100.811 144.771 100.791 145.059C100.77 145.347 100.693 145.628 100.563 145.887C100.434 146.145 100.255 146.375 100.036 146.564C99.8178 146.753 99.564 146.898 99.2895 146.989C91.5973 149.56 83.5394 150.873 75.4273 150.879Z" fill="url(#paint0_linear_115_196)"/><defs><linearGradient id="paint0_linear_115_196" x1="0.241566" y1="75.7924" x2="146.975" y2="75.7924" gradientUnits="userSpaceOnUse"><stop stop-color="#3CC18E"/><stop offset="1" stop-color="#4456A4"/></linearGradient></defs></svg>