<svg width="100%" height="100%" style="overflow:visible;" preserveAspectRatio="none" viewBox="0 0 150.46 150.13" fill="none" xmlns="http://www.w3.org/2000/svg"><path d="M75.4273 150.879C57.5615 150.871 40.2817 144.52 26.68 132.962C13.0784 121.405 4.04278 105.396 1.19008 87.7997C-1.66262 70.2034 1.85381 52.1685 11.1101 36.9225C20.3664 21.6764 34.7584 10.2143 51.7106 4.58716C65.8225 -0.0943823 81.0086 -0.498267 95.3505 3.42652C109.692 7.35131 122.547 15.4287 132.29 26.6384C142.033 37.8482 148.228 51.6874 150.093 66.408C151.957 81.1286 149.407 96.0702 142.764 109.346C136.5 121.814 126.886 132.3 114.996 139.634C103.106 146.968 89.4064 150.861 75.4273 150.879ZM75.5684 5.10323C64.3408 5.09886 53.2729 7.75676 43.2769 12.8579C33.281 17.959 24.6432 25.3572 18.0756 34.4427C11.508 43.5283 7.19862 54.0411 5.50264 65.1145C3.80666 76.1879 4.77266 87.505 8.32101 98.1328C20.6667 135.094 60.8587 155.131 97.8958 142.818C113.834 137.502 127.359 126.707 136.055 112.36C144.751 98.0127 148.052 81.0486 145.369 64.4973C142.685 47.946 134.192 32.8854 121.406 22.0054C108.62 11.1255 92.3732 5.13476 75.5684 5.10323Z" fill="#D9D9D9"/></svg>