<svg width="100%" height="100%" style="overflow:visible;" preserveAspectRatio="none" viewBox="0 0 118.51 118.31" fill="none" xmlns="http://www.w3.org/2000/svg"><path d="M59.4446 118.962C45.3762 118.94 31.7741 113.927 21.0687 104.821C10.3633 95.714 3.2522 83.1062 1.00607 69.2501C-1.24006 55.3939 1.52515 41.1924 8.80756 29.1832C16.09 17.1739 27.4151 8.13938 40.7592 3.69401C71.7561 -6.61891 105.399 10.1598 115.736 41.0986C118.692 49.9942 119.49 59.4627 118.064 68.7258C116.638 77.989 113.03 86.7824 107.535 94.3832C102.04 101.984 94.8152 108.175 86.455 112.448C78.0949 116.721 68.8378 118.953 59.4446 118.962ZM59.56 1.72355C45.2709 1.69172 31.4684 6.90008 20.7769 16.3583C10.0854 25.8165 3.25041 38.865 1.57164 53.0227C-0.107122 67.1803 3.48738 81.4598 11.6717 93.146C19.856 104.832 32.0593 113.11 45.9613 116.406C59.8634 119.702 74.4945 117.785 87.0728 111.021C99.6512 104.257 109.299 93.1169 114.183 79.719C119.067 66.3211 118.845 51.5998 113.561 38.3542C108.276 25.1086 98.2972 14.2624 85.521 7.87804C77.4604 3.85244 68.5741 1.74581 59.56 1.72355Z" fill="#D9D9D9"/></svg>