<svg width="100%" height="100%" style="overflow:visible;" preserveAspectRatio="none" viewBox="0 0 150.37 150.13" fill="none" xmlns="http://www.w3.org/2000/svg"><path d="M75.3215 150.879C62.5044 150.859 49.9047 147.573 38.7168 141.334C27.5289 135.094 18.1235 126.107 11.392 115.225C4.66059 104.343 0.826164 91.9255 0.252255 79.1505C-0.321654 66.3754 2.38396 53.6658 8.11261 42.2263C26.6611 5.2141 71.9401 -9.84157 109.033 8.66453C124.176 16.2455 136.312 28.7021 143.479 44.0191C150.645 59.3361 152.423 76.6174 148.523 93.0673C144.624 109.517 135.276 124.173 121.992 134.665C108.707 145.156 92.2639 150.869 75.3215 150.879ZM75.5139 5.14586C58.1508 5.12227 41.3846 11.4657 28.403 22.9699C15.4214 34.4742 7.12993 50.337 5.10504 67.5421C3.08015 84.7473 7.46308 102.095 17.4205 116.287C27.3778 130.478 42.2153 140.524 59.1115 144.514C76.0077 148.504 93.7844 146.16 109.061 137.927C124.339 129.695 136.051 116.148 141.971 99.8627C147.891 83.5774 147.606 65.6893 141.171 49.5998C134.735 33.5102 122.598 20.3413 107.066 12.5969C97.267 7.71498 86.467 5.16461 75.5139 5.14586Z" fill="#D9D9D9"/></svg>