<svg width="100%" height="100%" style="overflow:visible;" preserveAspectRatio="none" viewBox="0 0 141.48 145.22" fill="none" xmlns="http://www.w3.org/2000/svg"><path d="M75.6659 145.849C44.1646 145.849 14.741 125.94 4.24625 94.5275C-1.90924 76.2193 -0.740267 56.2467 7.50921 38.7778C15.7587 21.3088 30.4513 7.69339 48.5207 0.772889C49.0626 0.581516 49.658 0.608767 50.18 0.84884C50.7021 1.08891 51.1096 1.52284 51.3158 2.05822C51.5219 2.59359 51.5105 3.18812 51.2839 3.7152C51.0572 4.24228 50.6333 4.66026 50.1024 4.88014C33.0933 11.3944 19.2629 24.2109 11.4977 40.6547C3.73245 57.0985 2.63237 75.8992 8.42704 93.1328C20.7941 130.094 60.9776 150.131 98.0019 137.818C114.942 132.213 129.123 120.408 137.685 104.785C137.969 104.273 138.444 103.895 139.007 103.733C139.571 103.571 140.175 103.638 140.688 103.921C141.201 104.204 141.581 104.679 141.743 105.241C141.905 105.802 141.837 106.406 141.554 106.917C135.069 118.697 125.534 128.525 113.945 135.376C102.356 142.227 89.1365 145.849 75.6659 145.866V145.849Z" fill="url(#paint0_linear_115_192)"/><defs><linearGradient id="paint0_linear_115_192" x1="0.347603" y1="73.2406" x2="141.823" y2="73.2406" gradientUnits="userSpaceOnUse"><stop stop-color="#FFB979"/><stop offset="1" stop-color="#FF3E57"/></linearGradient></defs></svg>