<svg width="100%" height="100%" style="overflow:visible;" preserveAspectRatio="none" viewBox="0 0 150.46 150.14" fill="none" xmlns="http://www.w3.org/2000/svg"><path d="M75.1574 150.139C59.3819 150.104 44.0155 145.129 31.2249 135.916C18.4344 126.702 8.86497 113.716 3.86606 98.7878C-9.24913 59.5236 12.0908 16.937 51.4407 3.85603C90.7905 -9.22492 133.475 12.0577 146.59 51.3176C159.705 90.5775 138.365 133.168 99.0153 146.249C91.3246 148.82 83.2681 150.133 75.1574 150.139ZM8.04257 97.3931C20.4139 134.354 60.5974 154.391 97.6217 142.078C115.438 136.151 130.166 123.406 138.566 106.647C146.966 89.8874 148.35 70.4855 142.413 52.7081C130.059 15.7513 89.8757 -4.29877 52.8343 8.02299C35.017 13.949 20.2889 26.6938 11.8896 43.4538C3.49044 60.2138 2.10815 79.6163 8.04684 97.3931H8.04257Z" fill="#D9D9D9"/><path d="M75.1652 141.69C61.1649 141.657 47.528 137.241 36.1772 129.064C24.8263 120.887 16.3341 109.362 11.8976 96.1134C0.252982 61.2722 19.1948 23.4752 54.1159 11.8614C89.037 0.24765 126.921 19.1504 138.561 53.9874C141.893 64.0065 142.794 74.6715 141.19 85.1057C139.586 95.5398 135.522 105.445 129.333 114.007C123.144 122.569 115.007 129.543 105.59 134.355C96.1729 139.168 85.7456 141.682 75.1652 141.69ZM75.1652 10.6373C64.9418 10.6482 54.8672 13.0817 45.7709 17.7374C36.6746 22.3931 28.8168 29.1378 22.8444 37.4163C16.872 45.6948 12.9558 55.2702 11.4183 65.3542C9.88077 75.4382 10.7659 85.7423 14.0008 95.4182C16.6811 103.442 20.9191 110.86 26.4729 117.25C32.0267 123.64 38.7875 128.875 46.3694 132.658C53.9513 136.44 62.2057 138.696 70.6613 139.296C79.1169 139.896 87.6081 138.828 95.6502 136.154C129.421 124.924 147.735 88.3851 136.479 54.6912C127.463 27.7274 102.208 10.6373 75.178 10.6373H75.1652Z" fill="#D9D9D9"/><path d="M75.1694 134.222C61.1011 134.2 47.4989 129.188 36.7935 120.081C26.0881 110.974 18.9771 98.3664 16.7309 84.5103C14.4848 70.6542 17.25 56.4526 24.5324 44.4434C31.8148 32.4341 43.1399 23.3996 56.4841 18.9542C87.4852 8.64132 121.124 25.4201 131.465 56.3588C134.421 65.2547 135.219 74.7236 133.793 83.9871C132.367 93.2506 128.758 102.044 123.263 109.645C117.767 117.246 110.542 123.437 102.181 127.71C93.8206 131.982 84.5629 134.214 75.1694 134.222ZM75.2848 16.9838C66.0614 16.9798 56.9691 19.163 48.7574 23.3532C40.5458 27.5435 33.4498 33.6209 28.0545 41.0846C22.6591 48.5482 19.119 57.1843 17.7257 66.281C16.3325 75.3777 17.1261 84.6745 20.0411 93.4052C30.181 123.768 63.2169 140.231 93.6238 130.115C106.715 125.746 117.823 116.878 124.966 105.093C132.108 93.3075 134.819 79.3731 132.616 65.7777C130.412 52.1822 123.436 39.811 112.934 30.873C102.433 21.935 89.0884 17.0122 75.2848 16.9838Z" fill="#D9D9D9"/></svg>