<svg width="100%" height="100%" style="overflow:visible;" preserveAspectRatio="none" viewBox="0 0 142.68 150.09" fill="none" xmlns="http://www.w3.org/2000/svg"><path d="M68.2701 150.836C56.6292 150.836 45.1489 148.125 34.7426 142.92C34.2194 142.659 33.8216 142.201 33.6368 141.647C33.452 141.093 33.4954 140.489 33.7573 139.967C34.0192 139.445 34.4782 139.048 35.0334 138.863C35.5885 138.679 36.1944 138.722 36.7176 138.984C71.643 156.406 114.259 142.229 131.721 107.388C135.96 99.0815 138.509 90.0204 139.222 80.7267C139.936 71.433 138.798 62.0903 135.877 53.237C132.955 44.3837 128.306 36.1947 122.198 29.142C116.09 22.0892 108.643 16.3119 100.287 12.1432C91.9316 7.97438 82.8315 5.49644 73.5116 4.8521C64.1917 4.20776 54.836 5.40976 45.9838 8.38885C37.1315 11.3679 28.9576 16.0652 21.9329 22.2101C14.9083 28.3549 9.17176 35.8259 5.05388 44.1925C4.92449 44.4507 4.7454 44.681 4.52681 44.8701C4.30823 45.0592 4.05444 45.2036 3.77994 45.2949C3.50545 45.3862 3.21562 45.4226 2.92701 45.4021C2.63839 45.3817 2.35664 45.3047 2.09785 45.1756C1.83905 45.0465 1.60826 44.8678 1.41868 44.6497C1.22911 44.4316 1.08445 44.1784 0.992949 43.9046C0.901451 43.6307 0.864915 43.3415 0.885426 43.0536C0.905937 42.7656 0.983103 42.4845 1.1125 42.2263C19.661 5.2141 64.9401 -9.84157 102.033 8.66453C117.183 16.2413 129.326 28.6994 136.494 44.0207C143.662 59.342 145.435 76.6291 141.527 93.0816C137.619 109.534 128.258 124.188 114.961 134.671C101.664 145.153 85.2086 150.849 68.2616 150.836H68.2701Z" fill="url(#paint0_linear_115_203)"/><defs><linearGradient id="paint0_linear_115_203" x1="121.623" y1="22.6981" x2="18.1008" y2="126.457" gradientUnits="userSpaceOnUse"><stop stop-color="#F441A5"/><stop offset="1" stop-color="#831BFF"/></linearGradient></defs></svg>