<svg width="100%" height="100%" style="overflow:visible;" preserveAspectRatio="none" viewBox="0 0 133.89 133.58" fill="none" xmlns="http://www.w3.org/2000/svg"><path d="M67.3301 134.43C50.5069 134.446 34.2943 128.142 21.9186 116.773C9.54287 105.403 1.91137 89.8014 0.542808 73.0723C-0.825757 56.3432 4.16895 39.7133 14.5329 26.492C24.8969 13.2706 39.8704 4.42716 56.4735 1.72148C73.0767 -0.984197 90.0922 2.64627 104.134 11.8904C118.176 21.1345 128.214 35.3146 132.252 51.6087C136.29 67.9028 134.03 85.1163 125.924 99.8237C117.817 114.531 104.457 125.654 88.5033 130.979C81.6793 133.265 74.5285 134.43 67.3301 134.43ZM67.4583 3.35154C60.5015 3.35923 53.5914 4.48691 46.9947 6.69109C13.2235 17.921 -5.0899 54.4598 6.16574 88.1538C9.93297 99.3846 16.7326 109.361 25.8162 116.985C34.8999 124.609 45.9155 129.585 57.6509 131.365C69.3863 133.145 81.3865 131.661 92.3309 127.076C103.275 122.491 112.74 114.982 119.683 105.376C126.626 95.7697 130.778 84.4389 131.683 72.6302C132.587 60.8215 130.209 48.9927 124.81 38.4454C119.412 27.8982 111.201 19.0414 101.082 12.8497C90.9633 6.65798 79.3286 3.37137 67.4583 3.35154Z" fill="#D9D9D9"/></svg>