<svg width="100%" height="100%" style="overflow:visible;" preserveAspectRatio="none" viewBox="0 0 133.53 133.25" fill="none" xmlns="http://www.w3.org/2000/svg"><path d="M67.4361 133.43C55.1451 133.42 43.0952 130.026 32.6136 123.622C22.132 117.217 13.6254 108.051 8.0307 97.1317C2.43601 86.2129 -0.0297058 73.9653 0.905124 61.7379C1.83995 49.5105 6.13906 37.7777 13.3289 27.8318C20.5188 17.8859 30.3205 10.1128 41.6545 5.36857C52.9884 0.624355 65.4148 -0.906883 77.5651 0.943511C89.7154 2.7939 101.118 7.95414 110.517 15.8559C119.917 23.7576 126.948 34.0942 130.836 45.7272C134.168 55.7466 135.069 66.4121 133.465 76.8466C131.86 87.2811 127.796 97.1865 121.607 105.748C115.418 114.31 107.28 121.284 97.8621 126.097C88.4446 130.909 78.0168 133.422 67.4361 133.43ZM67.5643 2.35156C53.9009 2.33119 40.5831 6.63477 29.5261 14.6434C18.4691 22.6519 10.2427 33.9529 6.03001 46.9209C1.8173 59.889 1.83535 73.8559 6.08155 86.8131C10.3277 99.7703 18.5833 111.05 29.6609 119.03C40.7386 127.01 54.0675 131.28 67.7308 131.224C81.3941 131.169 94.6877 126.791 105.7 118.721C116.712 110.651 124.875 99.3049 129.016 86.3137C133.156 73.3225 133.06 59.3558 128.741 46.4225C124.451 33.6119 116.239 22.4679 105.264 14.5612C94.288 6.65448 81.1019 2.38394 67.5643 2.35156Z" fill="#D9D9D9"/></svg>