<svg width="100%" height="100%" style="overflow:visible;" preserveAspectRatio="none" viewBox="0 0 118.53 118.25" fill="none" xmlns="http://www.w3.org/2000/svg"><path d="M59.3 118.927C50.1283 118.928 41.0833 116.792 32.8858 112.688C3.65024 98.1054 -8.24234 62.5092 6.38186 33.3575C21.0061 4.20581 56.6752 -7.67665 85.8937 6.91412C115.129 21.5006 127.022 57.0968 112.398 86.2443C107.461 96.0734 99.8792 104.337 90.5011 110.11C81.123 115.882 70.3192 118.935 59.3 118.927ZM59.4881 1.75766C48.6712 1.74713 38.0651 4.74211 28.8583 10.407C19.6514 16.0718 12.2075 24.1828 7.36079 33.8309C-6.98555 62.458 4.68474 97.3804 33.3774 111.707C62.0701 126.033 97.0724 114.372 111.427 85.7495C125.782 57.1267 114.103 22.2001 85.4106 7.87803C77.3649 3.8529 68.4886 1.75718 59.4881 1.75766Z" fill="url(#paint0_linear_115_205)"/><defs><linearGradient id="paint0_linear_115_205" x1="0.123508" y1="59.7924" x2="118.665" y2="59.7924" gradientUnits="userSpaceOnUse"><stop stop-color="#F441A5"/><stop offset="1" stop-color="#616EB4"/></linearGradient></defs></svg>